<?xml version="1.0" encoding="UTF-8"?>
<svg width="24px" height="24px" viewBox="0 0 24 24" version="1.1" xmlns="http://www.w3.org/2000/svg" xmlns:xlink="http://www.w3.org/1999/xlink">
    <!-- Generator: Sketch 55.2 (78181) - https://sketchapp.com -->
    <title>Icons/star-filled-yellow</title>
    <desc>Created with Sketch.</desc>
    <g id="Icons/star-filled" stroke="none" stroke-width="1" fill="none" fill-rule="evenodd">
        <path d="M8.24573863,7.3464661 L11.1032927,1.55737608 C11.470128,0.814207972 12.529872,0.814207972 12.8967073,1.55737608 L15.7542614,7.3464661 L22.1446282,8.28051393 C22.9645429,8.40035674 23.2913263,9.40819801 22.6977328,9.98635811 L18.0745218,14.4893656 L19.1656086,20.8509567 C19.3057271,21.6679189 18.4481783,22.2908819 17.7145487,21.9050735 L12,18.8998497 L6.28545128,21.9050735 C5.55182171,22.2908819 4.69427286,21.6679189 4.83439138,20.8509567 L5.92547821,14.4893656 L1.3022672,9.98635811 C0.708673672,9.40819801 1.03545711,8.40035674 1.85537179,8.28051393 L8.24573863,7.3464661 Z M7.14818079,19.1916734 L16.8518192,19.1916734 L7.14818079,19.1916734 Z" id="icon" fill="#FFB543"></path>
    </g>
</svg>