<?xml version="1.0" encoding="UTF-8"?>
<svg width="44px" height="44px" viewBox="0 0 44 44" version="1.1" xmlns="http://www.w3.org/2000/svg" xmlns:xlink="http://www.w3.org/1999/xlink">
    <title>logo-circle</title>
    <g id="logo-circle" stroke="none" stroke-width="1" fill="none" fill-rule="evenodd">
        <path d="M22,0 C34.1502645,-2.23196738e-15 44,9.8497355 44,22 C44,34.1502645 34.1502645,44 22,44 C9.8497355,44 1.48797825e-15,34.1502645 0,22 C-1.48797825e-15,9.8497355 9.8497355,2.23196738e-15 22,0 Z M28.8161452,10.6675619 C22.9077327,7.2310401 15.3264719,9.27750916 11.9152777,15.2297142 C9.01790466,20.2852895 8.36080037,26.3111755 9.58698703,30.8772901 L9.58698703,30.8772901 L17.6073915,22.9713013 L15.4648349,21.6974233 L15.357427,21.6262918 C14.5083114,21.0017394 14.8030101,19.6086992 15.8715237,19.4171601 L15.8715237,19.4171601 L18.7043053,18.9143075 L18.833632,18.8839953 C19.2564525,18.7599837 19.5917066,18.4107791 19.6928688,17.9718292 L19.6928688,17.9718292 L20.3244215,15.1391657 L20.3580872,15.0133393 C20.6830784,13.9996003 22.0927699,13.8594774 22.6067062,14.8369343 L22.6067062,14.8369343 L23.9612566,17.3919379 L24.0309272,17.5080826 C24.2812788,17.878395 24.7077577,18.0782999 25.1593057,18.0465106 L25.1593057,18.0465106 L28.025268,17.768488 L28.1444887,17.7616231 C29.2004676,17.7496506 29.7863159,19.059873 29.0170596,19.8525244 L29.0170596,19.8525244 L27.0182661,21.944313 L26.9304847,22.0466526 C26.6585496,22.400871 26.5945342,22.879854 26.7751108,23.3005186 L26.7751108,23.3005186 L27.9159156,25.9531976 L27.9581167,26.065589 C28.2863357,27.0762739 27.2393838,28.0468448 26.2563695,27.5608146 L26.2563695,27.5608146 L24.7116089,26.8059011 L14.1560864,37.2108507 L14.3910074,37.3207863 C19.8468645,39.7515553 28.8976656,35.4533775 33.3447137,27.6937662 C36.7559379,21.7415521 34.7245337,14.1040837 28.8161452,10.6675619 Z M19.0501168,25.0728429 L9.49077494,34.7030859 L11.3960264,36.6224667 L20.9553803,26.9922267 L19.0501168,25.0728429 Z" id="Icon" fill="#FFFFFF"></path>
    </g>
</svg>