<?xml version="1.0" encoding="UTF-8"?>
<svg width="32px" height="32px" viewBox="0 0 32 32" version="1.1" xmlns="http://www.w3.org/2000/svg" xmlns:xlink="http://www.w3.org/1999/xlink">
    <title>logo</title>
    <g id="logo" stroke="none" stroke-width="1" fill="none" fill-rule="evenodd">
        <path d="M5.91527767,9.22971423 C9.32647185,3.27750916 16.9077327,1.2310401 22.8161452,4.66756191 C28.7245337,8.10408371 30.7559379,15.7415521 27.3447137,21.6937662 C22.8332156,29.5658356 13.5835554,33.8754132 8.1560864,31.2108507 L8.1560864,31.2108507 L18.7116089,20.8059011 L20.2563695,21.5608146 C21.2757917,22.0648459 22.3639754,21.0023817 21.9159156,19.9531976 L21.9159156,19.9531976 L20.7751108,17.3005186 C20.5764765,16.8377876 20.6737986,16.3044912 21.0182661,15.944313 L21.0182661,15.944313 L23.0170596,13.8525244 C23.8148069,13.0305155 23.1552126,11.6518871 22.025268,11.768488 L22.025268,11.768488 L19.1593057,12.0465106 C18.6626029,12.0814788 18.1962337,11.8360971 17.9612566,11.3919379 L17.9612566,11.3919379 L16.6067062,8.83693434 C16.0722124,7.82037912 14.5688699,8.01259827 14.3244215,9.13916571 L14.3244215,9.13916571 L13.6928688,11.9718292 C13.5815904,12.4546741 13.1870608,12.8289272 12.7043053,12.9143075 L12.7043053,12.9143075 L9.8715237,13.4171601 C8.76026954,13.6163608 8.48597357,15.115105 9.46483486,15.6974233 L9.46483486,15.6974233 L11.6073915,16.9713013 L3.58698703,24.8772901 C2.36080037,20.3111755 3.01790466,14.2852895 5.91527767,9.22971423 Z M13.0501168,19.0728429 L14.9553803,20.9922267 L5.39602638,30.6224667 L3.49077494,28.7030859 L13.0501168,19.0728429 Z" id="Icon" fill="#FFFFFF"></path>
    </g>
</svg>