<svg height="16" viewBox="0 0 16 16" width="16" xmlns="http://www.w3.org/2000/svg"><path d="m14.3709819 5.65767116c0 4.33983009-3.3013967 9.34232884-9.33917035 9.34232884-1.78939121-.0009443-3.53908399-.5137579-5.03181155-1.4747626.25984658.0283284.52102733.0435078.78248906.0454772 1.48498324.0000265 2.92471348-.4977949 4.07721492-1.4097951-1.41937868-.0340423-2.65636669-.9506673-3.06858453-2.27386303.2038774.03925168.411231.05883662.61905357.05847077.29328355.00101287.58524161-.03835715.86720868-.11694153-1.55010205-.32799855-2.6505851-1.67109581-2.6349802-3.21589206.45593564.21000544.96594713.35026644 1.4882635.37031485-1.44731321-.98909619-1.8869608-2.88678314-1.01596831-4.38530735 1.64206899 2.03972237 4.10810488 3.29005542 6.7655618 3.43028486-.05656297-.24521804-.08497713-.4957972-.08471961-.74712644-.02373244-1.78881382 1.445973-3.25768706 3.28271832-3.28085957.9120454.00041649 1.7816004.37548947 2.3948301 1.03298351.7380331-.14180719 1.4443302-.41017804 2.0859704-.7926037-.2401623.75477067-.7536291 1.39890146-1.444903 1.8125937.6518945-.07601228 1.2879288-.24911258 1.8858453-.51324338-.4383285.65512062-.9926041 1.22924729-1.6370231 1.69565218.0060037.14292853.008005.28585707.008005.42228885z" fill="#2aa3f0" fill-rule="evenodd"/></svg>