<?xml version="1.0" encoding="UTF-8"?>
<svg width="1249px" height="850px" viewBox="0 0 1249 850" version="1.1" xmlns="http://www.w3.org/2000/svg" xmlns:xlink="http://www.w3.org/1999/xlink">
    <title>illustration</title>
    <defs>
        <linearGradient x1="0.0302564103%" y1="49.9915721%" x2="100.00441%" y2="49.9915721%" id="linearGradient-1">
            <stop stop-color="#F35D34" offset="0%"></stop>
            <stop stop-color="#FFB833" offset="100%"></stop>
        </linearGradient>
        <linearGradient x1="0.0302564103%" y1="49.9915721%" x2="100.00441%" y2="49.9915721%" id="linearGradient-2">
            <stop stop-color="#F35D34" offset="0%"></stop>
            <stop stop-color="#FFB833" offset="100%"></stop>
        </linearGradient>
        <linearGradient x1="0.0302564103%" y1="49.9915721%" x2="100.00441%" y2="49.9915721%" id="linearGradient-3">
            <stop stop-color="#F35D34" offset="0%"></stop>
            <stop stop-color="#FFB833" offset="100%"></stop>
        </linearGradient>
        <linearGradient x1="0.117508343%" y1="49.9110255%" x2="100.196874%" y2="49.9110255%" id="linearGradient-4">
            <stop stop-color="#93FD93" offset="0%"></stop>
            <stop stop-color="#21C2C1" offset="51%"></stop>
            <stop stop-color="#84F599" offset="100%"></stop>
        </linearGradient>
        <linearGradient x1="33.7200321%" y1="20.668206%" x2="96.9469618%" y2="91.2454749%" id="linearGradient-5">
            <stop stop-color="#93FD93" offset="0%"></stop>
            <stop stop-color="#21C2C1" offset="51%"></stop>
            <stop stop-color="#84F599" offset="100%"></stop>
        </linearGradient>
        <linearGradient x1="-14.4606649%" y1="80.5325497%" x2="76.5968029%" y2="33.9446635%" id="linearGradient-6">
            <stop stop-color="#93FD93" offset="0%"></stop>
            <stop stop-color="#21C2C1" offset="51%"></stop>
            <stop stop-color="#84F599" offset="100%"></stop>
        </linearGradient>
        <linearGradient x1="59.8922906%" y1="86.6728546%" x2="44.3930844%" y2="27.4098443%" id="linearGradient-7">
            <stop stop-color="#93FD93" offset="0%"></stop>
            <stop stop-color="#21C2C1" offset="51%"></stop>
            <stop stop-color="#84F599" offset="100%"></stop>
        </linearGradient>
        <linearGradient x1="-0.0616553604%" y1="49.9924444%" x2="99.9745853%" y2="49.9924444%" id="linearGradient-8">
            <stop stop-color="#93FD93" offset="0%"></stop>
            <stop stop-color="#21C2C1" offset="51%"></stop>
            <stop stop-color="#84F599" offset="100%"></stop>
        </linearGradient>
        <linearGradient x1="2.86635792%" y1="105.094128%" x2="51.42827%" y2="29.1032918%" id="linearGradient-9">
            <stop stop-color="#93FD93" offset="0%"></stop>
            <stop stop-color="#21C2C1" offset="51%"></stop>
            <stop stop-color="#84F599" offset="100%"></stop>
        </linearGradient>
        <linearGradient x1="0.0302564103%" y1="49.9915721%" x2="100.00441%" y2="49.9915721%" id="linearGradient-10">
            <stop stop-color="#FFB833" offset="0%"></stop>
            <stop stop-color="#F33E3E" offset="100%"></stop>
        </linearGradient>
        <linearGradient x1="0.0302564103%" y1="49.9915721%" x2="100.00441%" y2="49.9915721%" id="linearGradient-11">
            <stop stop-color="#3076F1" offset="0%"></stop>
            <stop stop-color="#50A0FF" offset="100%"></stop>
        </linearGradient>
        <linearGradient x1="26.8951071%" y1="50%" x2="72.7762084%" y2="50%" id="linearGradient-12">
            <stop stop-color="#FFA239" offset="0%"></stop>
            <stop stop-color="#FFCA75" offset="100%"></stop>
        </linearGradient>
        <linearGradient x1="0.0302564103%" y1="49.9915721%" x2="100.00441%" y2="49.9915721%" id="linearGradient-13">
            <stop stop-color="#8522EA" offset="0%"></stop>
            <stop stop-color="#CB5EFF" offset="100%"></stop>
        </linearGradient>
        <linearGradient x1="0.0302564103%" y1="49.9915721%" x2="100.00441%" y2="49.9915721%" id="linearGradient-14">
            <stop stop-color="#3076F1" offset="0%"></stop>
            <stop stop-color="#50A0FF" offset="100%"></stop>
        </linearGradient>
    </defs>
    <g id="Template" stroke="none" stroke-width="1" fill="none" fill-rule="evenodd">
        <g id="illustration">
            <g id="bg" transform="translate(19.282877, 0.000000)" fill-rule="nonzero">
                <path d="M37.9209324,380.87456 C19.8209324,347.57456 14.6209324,308.67456 23.5209324,271.87456 C48.8209324,167.57456 120.420932,-15.5254405 309.920932,10.3745595 C572.920932,46.3745595 649.420932,55.3745595 757.320932,21.5745595 C865.220932,-12.2254405 1051.82093,-12.1254405 1110.22093,64.2745595 C1145.62093,110.57456 1265.32093,318.27456 1188.92093,390.27456 C1112.52093,462.27456 1225.92093,604.67456 1229.42093,680.27456 C1232.92093,755.87456 1123.82093,765.67456 986.620932,767.97456 C849.420932,770.27456 52.4209324,744.07456 52.4209324,744.07456 C52.4209324,744.07456 -49.7790676,567.87456 31.2209324,504.97456 C81.3209324,465.97456 58.8209324,419.37456 37.9209324,380.87456 Z" id="Path" fill="#F8F8FF"></path>
                <path d="M117.620932,661.67456 C100.120932,661.07456 34.4209324,670.07456 30.5209324,673.47456 C29.5209324,674.37456 15.1209324,717.17456 78.4209324,772.37456 C179.620932,860.77456 451.820932,863.77456 540.020932,830.17456 C668.020932,781.37456 808.320932,872.87456 1099.02093,837.87456 C1191.92093,826.67456 1254.02093,684.37456 1211.82093,665.87456 C1186.52093,654.87456 1156.22093,684.07456 1130.82093,671.27456 C1101.52093,656.47456 1042.22093,647.27456 1005.52093,658.57456 C1004.02093,658.97456 1003.12093,660.57456 1003.52093,662.07456 C1003.92093,663.47456 1005.32093,664.37456 1006.82093,664.07456 L987.520932,670.27456 C966.020932,686.27456 970.820932,664.97456 920.420932,662.27456 L771.820932,658.57456 C718.720932,660.17456 514.220932,669.17456 434.220932,665.97456 L390.220932,665.97456 C360.820932,662.27456 284.720932,660.57456 281.920932,660.47456 L117.620932,661.67456 Z" id="Path" fill="#F5F5FC"></path>
            </g>
            <g id="chair" transform="translate(182.959365, 443.974560)" fill-rule="nonzero">
                <path d="M14.4444444,0 L59.4444444,0 C59.4444444,0 73.4444444,2 74.4444444,12 C75.4444444,22 74.1444444,152.1 74.1444444,152.1 L164.444444,151 C164.444444,151 173.444444,154 173.444444,164 C173.444444,174 166.444444,178 166.444444,178 L29.2444444,177.4 L14.4444444,0" id="Path" fill="#BAC6F2"></path>
                <path d="M14.4444444,0 C14.4444444,0 1.44444444,2 0.444444444,22 C-0.555555556,42 0.444444444,177 0.444444444,177 L137.544444,178 C139.544444,178 141.444444,177.2 142.744444,175.7 C144.744444,173.5 147.444444,170.1 147.444444,167 C147.444444,161.6 145.444444,153 134.444444,153 C123.444444,153 30.4444444,152 30.4444444,152 L28.4444444,12 C28.4444444,12.1 28.4444444,2 14.4444444,0 Z" id="Path" fill="#B1C1F2"></path>
                <path d="M71.8444444,177.7 C71.8444444,177.7 69.4444444,189 77.4444444,189 L90.4444444,189 C91.4444444,189 95.7444444,183 93.0444444,178 C90.3444444,173 71.8444444,177.7 71.8444444,177.7" id="Path" fill="#BAC6F2"></path>
                <polygon id="Path" fill="#E9EDFA" points="77.4444444 189.1 78.4444444 302 87.4444444 302 87.9444444 188.4"></polygon>
                <polygon id="Path" fill="#E9EDFA" points="40.4444444 300 126.444444 301 126.444444 309 40.4444444 308"></polygon>
            </g>
            <g id="table" transform="translate(342.403809, 489.974560)" fill-rule="nonzero">
                <polygon id="Path" fill="#FFFFFF" points="51 264 47 55 68 55 67 264"></polygon>
                <polygon id="Path" fill="#FFFFFF" points="508 56 531 56 523 265 508 266"></polygon>
                <polygon id="Path" fill="#E9EDFA" points="31 19 32 53 541 56 541.6 18"></polygon>
                <polygon id="Path" fill="#BAC6F2" points="0 0 572 2 572 21 1 20"></polygon>
            </g>
            <g id="flower" transform="translate(990.574657, 425.896316)" fill-rule="nonzero">
                <polygon id="Path" fill="#E9EDFA" points="51.5291519 241.878243 52.5291519 326.878243 166.529152 324.878243 166.529152 241.878243"></polygon>
                <polyline id="Path" fill="#FFFFFF" points="141.529152 325.278243 141.629152 241.878243 134.329152 241.878243"></polyline>
                <path d="M81.1291519,241.678243 C81.1291519,241.678243 78.4291519,191.278243 102.229152,176.978243 C126.029152,162.678243 105.629152,129.278243 110.429152,111.578243 C115.229152,93.8782432 137.629152,80.8782432 137.629152,67.2782432 C137.629152,53.6782432 135.629152,15.4782432 161.429152,3.97824319 C187.229152,-7.52175681 207.729152,7.37824319 199.629152,29.8782432 C191.529152,52.3782432 185.329152,78.2782432 176.429152,86.3782432 C167.529152,94.4782432 171.029152,107.478243 172.329152,123.178243 C173.629152,138.878243 161.429152,164.678243 154.629152,174.278243 C147.829152,183.878243 154.629152,200.178243 152.629152,217.178243 C152.629152,217.178243 148.929152,240.978243 145.129152,241.778243 C141.329152,242.578243 81.1291519,241.678243 81.1291519,241.678243 Z" id="Path" fill="#BAC6F2"></path>
                <path d="M134.329152,243.278243 C134.329152,243.278243 137.329152,219.278243 110.729152,212.478243 C84.1291519,205.678243 106.929152,189.778243 101.629152,181.378243 C96.3291519,172.978243 71.2291519,166.778243 71.2291519,160.378243 C71.2291519,153.978243 73.5291519,135.778243 44.6291519,130.278243 C15.7291519,124.778243 -7.07084809,131.878243 2.02915191,142.578243 C11.1291519,153.278243 18.0291519,165.578243 27.8291519,169.478243 C37.6291519,173.378243 33.9291519,179.478243 32.4291519,186.978243 C30.9291519,194.478243 44.6291519,206.778243 52.2291519,211.278243 C59.8291519,215.778243 52.2291519,223.578243 54.5291519,231.678243 C54.5291519,231.678243 58.7291519,242.978243 62.8291519,243.378243 C66.9291519,243.778243 134.329152,243.278243 134.329152,243.278243 Z" id="Path" fill="#BAC6F2"></path>
                <path d="M112.129152,243.178243 C112.129152,243.178243 110.029152,218.078243 128.529152,210.978243 C147.029152,203.878243 131.229152,187.278243 134.829152,178.478243 C138.429152,169.678243 156.029152,163.278243 156.029152,156.478243 C156.029152,149.678243 154.429152,130.778243 174.529152,124.978243 C194.629152,119.178243 210.529152,126.678243 204.129152,137.878243 C197.729152,149.078243 193.029152,161.878243 186.129152,165.978243 C179.229152,170.078243 181.929152,176.478243 182.929152,184.278243 C183.929152,192.078243 174.429152,204.978243 169.129152,209.678243 C163.829152,214.378243 169.129152,222.578243 167.529152,230.978243 C167.529152,230.978243 164.629152,242.778243 161.729152,243.178243 C158.829152,243.578243 112.129152,243.178243 112.129152,243.178243 Z" id="Path" fill="#BAC6F2"></path>
            </g>
            <g id="board" transform="translate(226.603809, 185.774560)">
                <polygon id="Path" fill="#FFFFFF" fill-rule="nonzero" points="234.6 -5.68434189e-14 235.3 191.8 768.8 191 768.8 1.5"></polygon>
                <polygon id="Path" fill="#BAC6F2" fill-rule="nonzero" points="330 60 330 83.6 548.5 82.6 548.5 60"></polygon>
                <polygon id="Path" fill="#BAC6F2" fill-rule="nonzero" points="330 125.7 330 149.3 548.5 148.3 548.5 125.7"></polygon>
                <circle id="Oval" fill="#BAC6F2" fill-rule="nonzero" cx="293.1" cy="75.4" r="16.4"></circle>
                <circle id="Oval" fill="#BAC6F2" fill-rule="nonzero" cx="293.1" cy="136.7" r="16.4"></circle>
                <rect id="Rectangle" fill="#E9EDFA" fill-rule="nonzero" x="608.2" y="85.8" width="129.7" height="63.3"></rect>
                <path d="M606.1,146.1 C606.1,146.1 616.2,124 625.8,126.4 C635.4,128.8 637.8,138.9 645,134.6 C652.2,130.3 656.9,112.9 663.9,110.1 C673.9,106.2 677.2,110.5 690.7,118.2 C704.2,125.9 709.9,124.2 715.4,118.5 C720.5,113.3 729.9,99.2 740.3,92.9" id="Path" stroke="#BAC6F2" stroke-width="3" stroke-linecap="round" stroke-linejoin="round"></path>
                <rect id="Rectangle" fill="#FFFFFF" fill-rule="nonzero" x="-5.68434189e-14" y="2.5" width="193" height="183.5"></rect>
                <circle id="Oval" stroke="#BAC6F2" stroke-width="6" stroke-linecap="round" stroke-linejoin="round" cx="94" cy="113.6" r="49.9"></circle>
                <rect id="Rectangle" fill="#BAC6F2" fill-rule="nonzero" x="12.7" y="18.4" width="49.1" height="11.6"></rect>
                <rect id="Rectangle" fill="#BAC6F2" fill-rule="nonzero" x="12.7" y="36.6" width="49.1" height="11.6"></rect>
            </g>
            <g id="Computer" transform="translate(376.703809, 332.174560)" fill-rule="nonzero">
                <path d="M6.1,128 L158.4,128 C158.4,128 164.1,127.7 164.1,121.1 L164.1,108 L0.1,108 L0.1,123.9 C0.9,126.4 3.3,128.1 6.1,128" id="Path" fill="#BAC5F4"></path>
                <path d="M0.1,9 L0,113 L164.1,111.5 L164.1,6 C164.1,6 165.1,0 158.7,0 L6.3,0 C6.3,0 -0.6,0 0.1,9" id="Path" fill="#BAC5F4"></path>
                <polygon id="Path" fill="#BAC5F4" points="69.1 155.9 69.1 127 93.1 128 93.1 153.4"></polygon>
                <polygon id="Path" fill="#BAC5F4" points="31 153 130.7 153 130.8 158 31 158"></polygon>
                <path d="M80.6,115.1 C83.3,115.1 85.4,117.2 85.4,119.9 C85.4,122.6 83.3,124.7 80.6,124.7 C77.9,124.7 75.8,122.6 75.8,119.9 C75.8,117.2 78,115.1 80.6,115.1 L80.6,115.1" id="Path" fill="#FFFFFF"></path>
                <rect id="Rectangle" fill="#F8F8FF" x="5.1" y="5" width="154" height="101"></rect>
                <path d="M12.8,10.2 C14.1,10.2 15.2,11.3 15.2,12.6 C15.2,13.9 14.1,15 12.8,15 C11.5,15 10.4,13.9 10.4,12.6 C10.4,11.3 11.5,10.2 12.8,10.2 L12.8,10.2" id="Path" fill="#FA5F5D"></path>
                <path d="M21,10.2 C22.3,10.2 23.4,11.3 23.4,12.6 C23.4,13.9 22.3,15 21,15 C19.7,15 18.6,13.9 18.6,12.6 C18.6,11.3 19.7,10.2 21,10.2 L21,10.2" id="Path" fill="#FDBC4E"></path>
                <path d="M29.6,10.2 C30.9,10.2 32,11.3 32,12.6 C32,13.9 30.9,15 29.6,15 C28.3,15 27.2,13.9 27.2,12.6 C27.2,11.3 28.3,10.2 29.6,10.2 L29.6,10.2" id="Path" fill="#37CD58"></path>
                <path d="M63.1,27.8 C63,29.1 61.9,30.1 60.6,30 L31.1,30 C29.6,30 28.1,29 28.1,27.8 L28.1,23.3 C28.1,22.1 29.5,21 31.1,21 L60.5,21 C61.8,20.9 63,21.9 63.1,23.2 L63.1,23.3 L63.1,27.8 Z" id="Path" fill="url(#linearGradient-1)"></path>
                <path d="M134.1,57.6 C134,59 132.8,60.1 131.4,60 L131.4,60 L31.1,60 C29.6,60 28.1,58.9 28.1,57.6 L28.1,35.4 C28.1,34.1 29.6,33 31.1,33 L131.4,33 C132.8,32.9 134,34 134.1,35.4 L134.1,35.4 L134.1,35.4 L134.1,57.6 Z" id="Path" fill="url(#linearGradient-2)"></path>
                <path d="M134.183199,64.2398441 L134.2,64.4 L134.1,76.6 C134,78 132.8,79.1 131.4,79 L104,79 C102.5,79.1 101.3,78 101.1,76.6 L101.1,64.4 C101.2,62.9 102.5,61.9 104,62 L131.4,62 C132.746154,61.9038462 133.999852,62.9171598 134.183199,64.2398441 Z M61.082784,64.1339648 L61.1,64.3 L61.1,76.6 C61.1,77.8458333 60.0897569,78.9079861 58.8613932,78.9943359 L58.7,79 L31.1,79 C29.5,79 28.1,77.9 28.1,76.6 L28.1,64.4 C28.1,63.1 29.6,62 31.1,62 L58.5,62 C59.748,61.904 60.90384,62.82176 61.082784,64.1339648 Z M97.1,64.3 L97.1,76.6 C97.1,77.8458333 96.0897569,78.9079861 94.8613932,78.9943359 L94.7,79 L67.1,79 C65.5,79 64.1,77.9 64.1,76.6 L64.1,64.4 C64.1,63.1 65.6,62 67.1,62 L94.5,62 C95.8,61.9 97,62.9 97.1,64.3 Z" id="Combined-Shape" fill="url(#linearGradient-3)"></path>
                <path d="M97.1,83.5 C96.9,84 96.5,84.3 96,84.4 C95.9,84.4 95.9,84.4 95.8,84 L65.6,84 C65,84.4 64.1,84 64.1,83.5 L64.1,83.1 C64.1,82.6 65,82.1 65.6,82 L95.8,82 C96.3,82.1 96.6,82.5 96.7,82.9 C96.7,83 96.7,83 97,83.1 L97.1,83.5 L97.1,83.5 Z" id="Path" fill="#E9EDFB"></path>
                <path d="M97.1,87.4 C96.9,87.9 96.5,88.3 96,88.4 C96,88.4 95.9,88.4 95.9,88 L65.6,88 C65,88.4 64.1,88 64.1,87.4 L64.1,87 C64.1,86.5 65,86.1 65.6,86 L95.8,86 C96.3,86.1 96.8,86.5 97,87 L97.1,87.4 L97.1,87.4 Z" id="Path" fill="#E9EDFB"></path>
                <path d="M97.1,91.4 C96.9,92 96.4,92.4 95.9,92.5 C95.9,92.3 95.9,92.2 95.9,92 L65.6,92 C65.1,92.3 64.5,92.2 64.2,91.7 C64.1,91.6 64.1,91.5 64.1,91.4 L64.1,91 C64.1,90.5 65,90.2 65.6,90 L95.8,90 C96.3,90.1 96.8,90.5 97,91 L97.1,91.4 Z" id="Path" fill="#E9EDFB"></path>
                <path d="M97.1,95.3 C96.8,95.9 96.4,96.5 95.9,97 L65.6,97 C65,96.5 64.1,95.9 64.1,95.3 L64.1,94.9 C64.1,94.4 65,93.8 65.6,94 L95.8,94 C96.2,93.9 96.6,94.2 96.7,94.6 C96.7,94.7 96.7,94.8 96.7,94.9 C96.7,94.9 96.7,94.9 97,95 L97.1,95.3 L97.1,95.3 Z" id="Path" fill="#E9EDFB"></path>
                <path d="M80.3,99.3 C80.3,99.8 80,100 79.4,100 L65.5,100 C64.9,100 64.1,99.8 64.1,99.3 L64.1,98.9 C64.1,98.4 64.9,98 65.5,98 L79.4,98 C79.9,98 80.3,98.4 80.3,98.9 L80.3,98.9 L80.3,99.3 Z" id="Path" fill="#E9EDFB"></path>
                <path d="M134.1,83.5 C133.5,84 133.6,84.4 133,84 L102.8,84 C102.3,84.4 101.8,84.1 101.8,83.6 C101.8,83.6 101.8,83.6 102.1,83.5 L102.1,83.1 C101.8,82.6 102.2,82.1 102.8,82 L133,82 C133.6,82.2 133.5,82.6 134.1,83.1 L134.1,83.5 Z" id="Path" fill="#E9EDFB"></path>
                <path d="M134.1,87.4 C133.5,87.9 133.6,88.4 133,88 L102.8,88 C102.2,88.4 101.8,88 102.1,87.4 L102.1,87 C101.8,86.5 102.2,86.1 102.8,86 L133,86 C133.6,86.2 133.5,86.5 134.1,87 L134.1,87.4 Z" id="Path" fill="#E9EDFB"></path>
                <path d="M134.1,91.4 C133.5,91.9 133.6,92.5 133,92 L102.8,92 C102.2,92.4 101.8,92 102.1,91.4 L102.1,91 C101.8,90.5 102.2,90.2 102.8,90 L133,90 C133.6,90.2 133.5,90.5 134.1,91 L134.1,91.4 Z" id="Path" fill="#E9EDFB"></path>
                <path d="M134.1,95.3 C133.5,95.8 133.6,96.5 133,97 L102.8,97 C102.2,96.4 101.8,95.9 102.1,95.3 L102.1,94.9 C101.9,94.7 101.9,94.3 102.1,94.1 C102.3,94 102.5,93.9 102.7,94 L133,94 C133.6,93.8 133.5,94.4 134.1,94.9 L134.1,95.3 L134.1,95.3 Z" id="Path" fill="#E9EDFB"></path>
                <path d="M117.5,99.3 C117.5,99.8 117.5,100 117,100 L103,100 C102.4,100 102.1,99.8 102.1,99.3 L102.1,98.9 C102.1,98.4 102.5,98 103,98 L103,98 L116.9,98 C117.5,98 117.4,98.4 117.4,98.9 L117.5,99.3 Z" id="Path" fill="#E9EDFB"></path>
                <path d="M60.1,83.5 C60.5,84 60.3,84.4 59.7,84 L29.4,84 C29,84.3 28.5,84.2 28.3,83.9 C28.2,83.8 28.2,83.7 28.1,83.5 L28.1,83.1 C28.3,82.5 28.8,82.1 29.4,82 L59.6,82 C60.2,82.2 60.4,82.6 60,83.1 L60.1,83.5 L60.1,83.5 Z" id="Path" fill="#E9EDFB"></path>
                <path d="M60.1,87.4 C60.5,87.9 60.3,88.4 59.7,88 L29.4,88 C28.8,88.5 28.3,88 28.1,87.4 L28.1,87 C28.2,86.5 28.8,86.1 29.4,86 L59.6,86 C60.2,86.2 60.4,86.5 60,87 L60.1,87.4 L60.1,87.4 Z" id="Path" fill="#E9EDFB"></path>
                <path d="M60.1,91.4 C60.5,91.9 60.3,92.5 59.7,92 L29.4,92 C28.8,92.5 28.3,92 28.1,91.4 L28.1,91 C28.2,90.5 28.8,90.2 29.4,90 L59.6,90 C60.2,90.2 60.4,90.5 60,91 L60.1,91.4 L60.1,91.4 Z" id="Path" fill="#E9EDFB"></path>
                <path d="M51.1,94 L59.7,94 C60.3,93.8 60.5,94.4 60.1,94.9 L60.1,95.3 C60.5,95.8 60.3,96.5 59.7,97 L29.4,97 C28.8,96.6 28.4,96 28.1,95.3 L28.1,94.9 C28.2,94.3 28.8,93.9 29.4,94 L29.4,94 L51.1,94" id="Path" fill="#E9EDFB"></path>
                <path d="M45.1,99.3 C45.1,99.8 44.8,100 44.2,100 L29.2,100 C28.6,100 28.1,99.8 28.1,99.3 L28.1,98.9 C28.2,98.4 28.7,98 29.2,98 L44.2,98 C44.7,98 45.1,98.4 45.1,98.8 L45.1,98.8 C45.1,98.8 45.1,98.8 45.1,98.9 L45.1,99.3 Z" id="Path" fill="#E9EDFB"></path>
            </g>
            <g id="Layer_6" transform="translate(0.000000, 575.087149)" fill-rule="nonzero">
                <g id="Layer_18">
                    <path d="M102.603809,175.487411 C102.603809,175.487411 111.403809,127.687411 65.0038091,102.087411 C18.7038091,76.4874106 16.5038091,76.7874106 7.3038091,73.8874106 C2.0038091,72.0874106 -3.3961909,75.8874106 2.7038091,83.4874106 C8.8038091,91.1874106 5.3038091,93.0874106 17.5038091,96.4874106 C29.7038091,99.8874106 31.5038091,114.687411 37.6038091,118.387411 C43.7038091,122.087411 49.0038091,123.087411 67.6038091,131.087411 C84.5038091,138.387411 98.9038091,158.987411 98.9038091,166.187411 C98.9038091,173.387411 115.403809,175.887411 115.403809,175.887411 L102.603809,175.487411 Z" id="Path" fill="url(#linearGradient-4)"></path>
                    <path d="M101.003809,168.787411 C101.003809,168.787411 112.803809,124.787411 72.2038091,100.987411 C31.6038091,77.1874106 17.5038091,77.4874106 9.4038091,74.5874106 C4.8038091,72.8874106 17.4038091,78.6874106 22.7038091,85.6874106 C28.0038091,92.7874106 26.7038091,91.1874106 36.2038091,96.3874106 C47.2038091,102.487411 51.8038091,108.387411 58.3038091,109.587411 C67.7038091,111.387411 64.9038091,121.187411 81.2038091,128.487411 C95.9038091,135.187411 97.8038091,153.087411 97.8038091,159.787411 C97.8038091,166.587411 112.203809,168.787411 112.203809,168.787411 L101.003809,168.787411 Z" id="Path" fill="url(#linearGradient-5)"></path>
                    <path d="M141.803809,162.287411 L146.403809,157.887411 C148.603809,155.887411 151.303809,154.387411 154.203809,153.587411 C168.503809,149.787411 213.603809,135.687411 232.303809,101.587411 C232.503809,101.287411 232.303809,100.887411 232.003809,100.787411 L231.903809,100.787411 C231.803809,100.787411 231.703809,100.687411 231.703809,100.687411 C225.503809,100.187411 193.403809,99.6874106 150.503809,136.287411 C149.703809,136.887411 149.003809,137.687411 148.403809,138.387411 C147.303809,139.887411 145.503809,142.487411 144.703809,143.787411 C143.603809,145.787411 145.803809,149.087411 142.803809,151.987411 C139.803809,154.887411 133.303809,162.187411 133.303809,162.187411 L138.603809,166.087411 L141.803809,162.287411 Z" id="Path" fill="url(#linearGradient-6)"></path>
                    <path d="M117.403809,159.487411 C117.403809,159.487411 129.703809,49.3874106 96.1038091,14.7874106 C65.2038091,-17.0125894 64.7038091,12.1874106 64.8038091,17.1874106 C64.8038091,17.6874106 65.0038091,17.9874106 65.1038091,18.3874106 C72.4038091,31.9874106 74.9038091,47.6874106 72.3038091,62.8874106 C69.1038091,78.7874106 91.9038091,76.6874106 93.9038091,92.3874106 C95.9038091,108.087411 103.803809,132.287411 103.003809,143.387411 C102.203809,154.487411 102.103809,165.287411 102.103809,165.287411 L114.503809,165.687411 L117.403809,159.487411 Z" id="Path" fill="url(#linearGradient-7)"></path>
                    <path d="M117.303809,159.787411 C117.403809,159.587411 117.503809,159.287411 117.503809,158.987411 C118.303809,151.787411 128.603809,48.0874106 96.2038091,14.6874106 C65.5038091,-17.0125894 65.0038091,11.6874106 65.2038091,16.8874106 C65.3038091,17.4874106 65.6038091,18.0874106 65.9038091,18.5874106 C68.2038091,21.8874106 78.3038091,36.2874106 87.3038091,34.6874106 C112.203809,30.2874106 90.2038091,60.1874106 103.703809,76.1874106 C114.503809,88.7874106 110.903809,132.387411 110.103809,143.587411 C109.603809,149.887411 108.503809,156.087411 106.903809,162.187411 C106.603809,163.787411 107.703809,165.287411 109.203809,165.587411 C109.303809,165.587411 109.403809,165.587411 109.403809,165.587411 C109.603809,165.587411 109.803809,165.687411 110.003809,165.687411 L112.303809,165.687411 C113.703809,165.787411 114.903809,165.087411 115.503809,163.887411 L117.303809,159.787411 Z" id="Path" fill="url(#linearGradient-8)"></path>
                    <path d="M129.403809,166.187411 C129.403809,166.187411 131.603809,135.687411 149.403809,117.087411 C154.403809,111.987411 160.703809,108.487411 167.603809,106.887411 C172.903809,105.687411 181.603809,101.387411 189.203809,87.0874106 C189.203809,87.0874106 203.503809,66.7874106 217.903809,60.6874106 C232.203809,54.4874106 217.903809,53.7874106 217.903809,53.7874106 C217.903809,53.7874106 176.903809,61.5874106 150.603809,85.5874106 C148.903809,87.0874106 147.203809,88.4874106 145.303809,89.6874106 C138.503809,94.3874106 119.603809,111.887411 120.403809,163.187411 L129.403809,166.187411 Z" id="Path" fill="url(#linearGradient-9)"></path>
                    <path d="M165.003809,163.787411 C165.003809,163.787411 165.603809,160.087411 160.703809,160.187411 C156.403809,160.387411 84.0038091,159.787411 84.0038091,159.787411 C84.0038091,159.787411 80.6038091,159.787411 80.8038091,162.387411 C81.0038091,164.987411 92.0038091,225.287411 93.0038091,226.487411 C93.5038091,227.287411 94.2038091,227.887411 95.1038091,228.087411 C96.5038091,228.487411 147.303809,228.187411 147.303809,228.187411 C148.503809,227.987411 149.403809,227.087411 149.503809,225.887411 C149.503809,225.887411 165.103809,164.487411 165.003809,163.787411" id="Path" fill="url(#linearGradient-10)"></path>
                </g>
            </g>
            <g id="Man" transform="translate(768.490173, 191.553331)" fill-rule="nonzero">
                <g id="Group" transform="translate(0.000000, 576.921229)" fill="#AB50E6">
                    <path d="M136.013636,26.3 C133.313636,14.9 132.413636,0.3 130.613636,0 L128.613636,0 L109.513636,0.2 C109.513636,0.2 105.513636,18.4 103.513636,26 C103.313636,26.5 103.013636,27.8 102.613636,28.7 C102.213636,30 102.213636,31.4 102.213636,32.7 C102.613636,39.6 105.313636,45.5 111.413636,48.6 C118.313636,52 123.513636,55.3 130.513636,48.6 C137.613636,41.8 138.713636,37.7 136.013636,26.3 Z" id="Path"></path>
                    <path d="M75.513636,1.8 L51.313636,3.1 C51.313636,3.1 41.713636,19.7 27.713636,23.7 C14.513636,27.5 -7.28636401,36.7 2.41363599,41.9 C9.61363599,46.1 56.213636,42.3 67.513636,43.2 C76.013636,43.9 78.313636,38.7 77.413636,27.3 C76.813636,18.7 75.513636,1.8 75.513636,1.8 Z" id="Path"></path>
                </g>
                <path d="M46.513636,276.621229 C46.513636,276.621229 30.313636,410.121229 29.213636,418.821229 C28.113636,427.521229 34.813636,472.021229 34.813636,480.521229 C34.813636,489.021229 50.713636,580.121229 50.713636,580.121229 L76.013636,579.021229 C76.013636,579.021229 70.913636,444.921229 71.513636,438.421229 C72.013636,431.921229 99.713636,354.121229 99.713636,354.121229 C99.713636,354.121229 101.713636,374.721229 101.713636,381.221229 C101.713636,387.721229 109.313636,577.421229 109.313636,577.421229 L131.313636,577.421229 L162.513636,298.021229 L162.013636,292.621229 L46.513636,276.621229 Z" id="Path" fill="url(#linearGradient-11)"></path>
                <path d="M120.813636,18.7212287 C120.813636,18.7212287 96.613636,28.1212287 91.213636,30.2212287 C85.813636,32.4212287 82.713636,39.0212287 82.713636,39.0212287 C82.713636,39.0212287 80.013636,37.4212287 80.013636,41.9212287 C80.013636,46.4212287 82.213636,56.7212287 84.013636,59.4212287 C86.913636,63.9212287 89.413636,68.4212287 91.813636,73.1212287 C94.013636,77.8212287 93.213636,87.5212287 90.913636,89.0212287 C88.613636,90.4212287 47.813636,127.321229 47.813636,127.321229 L13.813636,231.821229 L18.313636,264.821229 L25.213636,297.321229 C25.213636,297.321229 23.813636,299.621229 26.613636,302.421229 C29.513636,305.121229 41.813636,325.321229 41.813636,325.321229 L46.013636,295.521229 L32.113636,251.321229 L27.213636,214.121229 L59.713636,147.721229 L172.313636,167.721229 L184.613636,240.121229 L161.813636,301.821229 L157.813636,331.921229 L176.913636,315.121229 C178.013636,314.221229 180.113636,309.521229 181.213636,307.021229 L192.613636,274.921229 L201.113636,223.621229 C201.113636,223.621229 130.013636,95.5212287 126.413636,87.9212287 C124.813636,84.5212287 126.613636,76.2212287 127.513636,72.0212287 C128.413636,68.2212287 130.213636,63.3212287 132.013636,61.9212287 C134.713636,59.0212287 136.013636,54.9212287 136.713636,51.1212287 C136.713636,48.4212287 137.813636,37.9212287 135.113636,40.5212287 C134.613636,41.2212287 132.613636,38.0212287 131.713636,33.8212287 C130.013636,27.7212287 125.713636,22.6212287 120.813636,18.7212287 Z" id="Path" fill="url(#linearGradient-12)"></path>
                <path d="M111.613636,123.221229 C109.813636,124.821229 107.113636,124.621229 105.513636,123.021229 C104.213636,121.021229 103.013636,119.021229 102.113636,117.021229 C100.313636,113.421229 86.413636,93.0212287 86.413636,93.0212287 C86.413636,93.0212287 53.413636,101.521229 48.113636,104.921229 C42.713636,108.521229 37.813636,113.421229 36.013636,119.721229 C34.213636,126.021229 8.71363599,200.221229 7.51363599,204.721229 C6.21363599,209.221229 -0.286364008,216.421229 2.81363599,234.721229 C5.91363599,253.021229 23.013636,299.721229 24.813636,300.221229 C26.613636,300.721229 44.813636,291.721229 44.813636,291.721229 C44.813636,291.721229 30.413636,233.621229 30.413636,227.821229 C30.413636,222.021229 43.413636,205.621229 48.613636,194.421229 C53.813636,183.221229 57.613636,173.521229 59.413636,168.621229 C61.213636,163.721229 43.913636,265.221229 43.913636,265.221229 C43.913636,265.221229 43.513636,283.621229 47.013636,285.421229 C50.213636,287.021229 89.013636,301.821229 98.113636,305.321229 C99.013636,305.721229 100.113636,305.121229 100.613636,304.221229 L100.613636,304.221229 L106.413636,287.821229 C106.413636,287.621229 106.613636,287.421229 106.813636,287.621229 C107.013636,287.621229 107.013636,287.821229 107.013636,287.821229 L112.413636,305.721229 C112.613636,306.621229 113.713636,307.121229 114.613636,307.021229 L162.413636,296.721229 C162.413636,296.721229 161.713636,208.521229 162.613636,193.721229 C163.313636,179.321229 161.513636,171.121229 164.213636,175.121229 C167.113636,179.421229 179.213636,219.121229 179.213636,225.821229 C179.213636,232.521229 165.713636,291.121229 165.713636,291.121229 L183.613636,301.021229 C183.613636,301.021229 207.813636,236.621229 209.013636,228.121229 C210.313636,219.621229 210.813636,215.121229 206.813636,206.621229 C202.813636,198.121229 180.813636,121.121229 180.813636,121.121229 C180.813636,121.121229 178.613636,111.721229 162.413636,106.821229 C146.213636,101.921229 134.113636,94.7212287 131.213636,94.9212287 C128.313636,95.1212287 119.313636,112.021229 115.313636,117.121229 C113.413636,119.021229 113.813636,119.921229 111.613636,123.221229 Z" id="Path" fill="url(#linearGradient-13)"></path>
                <path d="M120.613636,18.8212287 C120.613636,18.8212287 93.313636,28.7212287 87.813636,32.9212287 C83.613636,36.0212287 82.713636,38.9212287 82.713636,38.9212287 C82.713636,38.9212287 79.813636,37.6212287 80.013636,41.8212287 C80.213636,46.0212287 76.813636,35.3212287 75.813636,31.9212287 C75.113636,28.5212287 74.913636,18.9212287 82.313636,11.9212287 C89.713636,4.9212287 97.813636,-0.378771304 104.713636,0.0212286962 C111.613636,0.421228696 117.213636,2.3212287 122.613636,7.6212287 C128.013636,12.8212287 129.313636,12.5212287 130.413636,13.0212287 C131.513636,13.5212287 137.113636,19.5212287 137.813636,26.0212287 C138.513636,32.5212287 136.513636,42.1212287 136.513636,42.1212287 C136.513636,42.1212287 135.213636,40.7212287 133.813636,41.7212287 C132.413636,42.7212287 132.013636,35.6212287 127.313636,26.7212287 C123.913636,20.1212287 120.613636,18.8212287 120.613636,18.8212287 Z" id="Path" fill="url(#linearGradient-14)"></path>
                <path d="M103.313636,340.421229 C100.213636,349.421229 88.113636,367.121229 80.213636,377.821229 C72.313636,388.421229 47.913636,410.821229 49.513636,438.121229 C51.113636,465.421229 67.513636,535.621229 67.513636,541.921229 C67.513636,548.221229 61.413636,578.021229 56.713636,587.221229 C52.013636,596.421229 49.813636,612.821229 52.213636,612.821229 C56.513636,612.621229 61.013636,612.121229 65.413636,611.021229 C69.413636,610.121229 73.313636,609.221229 77.113636,607.921229 C78.713636,607.221229 79.113636,601.921229 79.113636,601.921229 C79.313636,599.721229 78.913636,597.421229 78.413636,595.421229 C77.313636,592.021229 76.413636,588.521229 75.913636,585.121229 C75.013636,559.521229 72.713636,500.121229 73.213636,495.921229 C74.113636,488.121229 67.813636,449.021229 73.613636,429.721229 C79.313636,410.521229 103.313636,340.421229 103.313636,340.421229 Z" id="Path" fill="#000000" opacity="0.07"></path>
                <path d="M44.813636,291.721229 L40.613636,323.821229 C40.613636,323.821229 44.813636,330.521229 46.013636,324.921229 C47.313636,319.321229 55.913636,308.821229 50.513636,301.321229 C45.113636,293.821229 44.813636,291.721229 44.813636,291.721229 Z" id="Path" fill="#000000" opacity="0.07"></path>
                <path d="M162.113636,300.621229 L160.713636,315.921229 L158.913636,330.721229 C158.913636,330.721229 152.813636,335.221229 152.913636,329.421229 C153.113636,323.621229 142.613636,315.021229 150.613636,309.221229 C158.613636,303.421229 162.113636,300.621229 162.113636,300.621229 Z" id="Path" fill="#000000" opacity="0.07"></path>
                <path d="M86.213636,93.2212287 C87.313636,93.0212287 81.013636,94.6212287 86.613636,92.8212287 C96.213636,89.7212287 92.213636,71.7212287 92.213636,71.7212287 C92.213636,71.7212287 93.113636,78.4212287 102.113636,81.1212287 C111.113636,83.8212287 113.513636,81.8212287 99.913636,88.1212287 C86.413636,94.4212287 93.413636,96.6212287 94.313636,104.921229" id="Path" fill="#000000" opacity="0.07"></path>
                <path d="M59.113636,174.821229 L43.913636,266.821229 C43.913636,266.821229 44.113636,283.221229 47.013636,285.621229 C49.913636,287.921229 59.613636,289.621229 61.813636,291.221229 C64.013636,292.821229 87.413636,300.621229 81.313636,287.421229 C79.913636,284.521229 48.313636,266.821229 62.413636,248.221229 C76.513636,229.621229 73.913636,204.021229 67.313636,186.121229 C63.313636,175.621229 61.313636,164.421229 61.913636,153.321229 L59.113636,174.821229 Z" id="Path" fill="#000000" opacity="0.07"></path>
            </g>
        </g>
    </g>
</svg>